<svg width="60" height="60" viewBox="0 0 60 60" fill="none" xmlns="http://www.w3.org/2000/svg">
<g id="Kyoto flag">
<path id="Vector" d="M43.489 34.8737C42.0902 34.0657 41.0014 33.7399 39.9488 33.4241C39.3591 33.2466 38.8034 33.0802 38.209 32.835C37.2206 32.4275 36.0424 31.6043 36.0424 30.0006C36.0424 28.3962 37.2206 27.5736 38.209 27.1662C38.804 26.9203 39.3597 26.7534 39.9488 26.5771C41.002 26.2613 42.0908 25.9343 43.489 25.1275C44.5131 24.536 45.1558 23.8337 45.3993 23.0404C45.5867 22.4285 45.5148 21.7664 45.202 21.2246C44.788 20.5078 44.0157 20.0803 43.1346 20.0803C42.4726 20.0803 41.7429 20.3081 40.9652 20.757C39.5669 21.5639 38.7402 22.3439 37.9398 23.0975C37.4915 23.5196 37.0688 23.9178 36.5591 24.3107C35.3424 25.246 34.1298 25.4094 33.0201 24.7696C31.9055 24.1256 31.4438 23.0176 31.6481 21.4757C31.7333 20.8375 31.8664 20.2718 32.0078 19.6734C32.2611 18.6034 32.5221 17.4976 32.5221 15.8833C32.5221 13.3483 31.1634 12.4481 29.9993 12.4481C28.8352 12.4481 27.4755 13.3483 27.4761 15.8833C27.4761 17.4976 27.7377 18.6034 27.9904 19.6734C28.1324 20.2718 28.266 20.8375 28.3506 21.4757C28.5556 23.0176 28.0943 24.1256 26.9787 24.7696C25.8694 25.4094 24.6569 25.246 23.4402 24.3107C22.9299 23.9184 22.5072 23.5196 22.0595 23.0975C21.259 22.3433 20.4323 21.5639 19.0341 20.757C18.2565 20.3081 17.5268 20.0803 16.8647 20.0803C15.9843 20.0803 15.2112 20.5084 14.7974 21.2246C14.4844 21.767 14.4126 22.4291 14.6001 23.0404C14.8434 23.8337 15.4863 24.536 16.5108 25.1275C17.9091 25.9349 18.998 26.2613 20.0511 26.5771C20.6402 26.754 21.1966 26.9203 21.7914 27.1662C22.7799 27.5736 23.9574 28.3968 23.958 30.0006C23.958 31.6049 22.7799 32.4275 21.7914 32.835C21.1966 33.0802 20.6402 33.2478 20.0511 33.4241C18.998 33.7399 17.9091 34.0669 16.5108 34.8737C15.4863 35.4646 14.8434 36.1668 14.6001 36.9602C14.4126 37.5727 14.4844 38.2342 14.7974 38.776C15.2112 39.4928 15.9837 39.9202 16.8647 39.9202C17.5268 39.9202 18.2565 39.6919 19.0341 39.2436C20.4323 38.4367 21.259 37.6567 22.0595 36.903C22.5072 36.481 22.9299 36.0828 23.4402 35.6899C24.6557 34.7534 25.8689 34.5894 26.9787 35.231C28.0938 35.875 28.5556 36.983 28.3506 38.5249C28.266 39.1636 28.1324 39.7288 27.9904 40.3277C27.7377 41.3972 27.4761 42.5036 27.4761 44.1179C27.4761 46.6528 28.8352 47.5524 29.9993 47.5524C31.1634 47.5524 32.5232 46.6528 32.5221 44.1179C32.5221 42.503 32.2611 41.3972 32.0078 40.3277C31.8664 39.7292 31.7327 39.1636 31.6481 38.5249C31.4432 36.983 31.9037 35.875 33.0201 35.231C34.1292 34.5906 35.343 34.7551 36.5591 35.6899C37.0688 36.0822 37.4921 36.481 37.9398 36.903C38.7402 37.6573 39.5669 38.4367 40.9652 39.2436C41.7429 39.6925 42.4726 39.9202 43.1346 39.9202C44.0151 39.9202 44.788 39.4922 45.202 38.776C45.5148 38.2336 45.5867 37.5715 45.3993 36.9602C45.1558 36.1668 44.5131 35.4646 43.489 34.8737ZM29.9999 34.0867C27.747 34.0867 25.9132 32.2535 25.9132 30C25.9132 27.7465 27.7464 25.9133 29.9999 25.9133C32.2535 25.9133 34.0866 27.7465 34.0866 30C34.0866 32.2535 32.2529 34.0867 29.9999 34.0867Z" fill="#BC002D"/>
<path id="Vector_2" d="M53.3812 38.6276C52.9952 33.8579 52.0868 31.982 48.6517 30C52.0862 28.0174 52.9946 26.1421 53.3812 21.3724C53.7671 16.6032 55.981 15 55.981 15C55.981 15 53.4869 16.1156 49.1626 14.0647C44.8387 12.0138 42.7609 11.8632 39.3252 13.8464C39.3252 9.88052 38.1564 8.15534 34.218 5.43709C30.2807 2.71826 29.9999 9.53674e-06 29.9999 9.53674e-06C29.9999 9.53674e-06 29.7191 2.71826 25.7807 5.4365C21.8428 8.15534 20.6735 9.87994 20.6735 13.8458C17.2388 11.8626 15.1604 12.0132 10.8367 14.0641C6.51297 16.115 4.01831 14.9994 4.01831 14.9994C4.01831 14.9994 6.23214 16.602 6.61746 21.3718C7.00337 26.1415 7.91237 28.0168 11.347 29.9994C7.91237 31.982 7.00337 33.8573 6.61746 38.627C6.23157 43.3968 4.01831 44.9988 4.01831 44.9988C4.01831 44.9988 6.51297 43.8838 10.8367 45.9347C15.1604 47.9856 17.2382 48.1363 20.6735 46.1531C20.6735 50.119 21.8428 51.8441 25.7807 54.5629C29.7185 57.2818 29.9999 59.9994 29.9999 59.9994C29.9999 59.9994 30.2807 57.2818 34.2197 54.5629C38.157 51.8441 39.327 50.1194 39.327 46.1531C42.7615 48.1357 44.8393 47.9856 49.1636 45.9347C53.4869 43.8844 55.982 44.9988 55.982 44.9988C55.982 44.9988 53.7671 43.3974 53.3812 38.6276ZM49.2355 41.1054C47.9686 43.3006 45.8885 43.7611 44.3665 43.7611C43.0552 43.7611 41.849 43.4033 41.2343 43.0483C39.7549 42.1942 38.2919 40.9583 37.5942 39.9727C36.5754 38.5343 35.6647 38.062 34.9069 38.4986C34.1333 38.9459 34.1106 39.9763 34.8403 41.5637C35.3436 42.6595 35.6822 44.544 35.6822 46.2529C35.6822 48.0061 34.0469 52.2101 29.9999 52.2107C27.747 52.2107 26.3738 50.9398 25.6189 49.8731C24.7246 48.6103 24.3176 47.1122 24.3176 46.2529C24.3176 44.544 24.6563 42.6595 25.16 41.5637C25.8899 39.9763 25.8671 38.9464 25.0936 38.4986C24.9137 38.3947 24.7205 38.3422 24.5202 38.3422C23.8751 38.3422 23.1839 38.8758 22.4068 39.9727C21.7091 40.9583 20.246 42.1942 18.7667 43.0483C18.1519 43.4027 16.9452 43.7611 15.6346 43.7611C14.1125 43.7611 12.0324 43.3006 10.7655 41.1054C9.63871 39.1542 10.0526 37.3298 10.5985 36.1429C11.2448 34.7371 12.3395 33.6343 13.0832 33.2052C14.5632 32.3504 16.3649 31.7012 17.5663 31.5898C19.305 31.428 20.1865 30.8921 20.1865 29.9988C20.1865 29.1056 19.305 28.5708 17.5663 28.4086C16.3649 28.297 14.5632 27.6478 13.0832 26.7931C12.3401 26.364 11.2454 25.2612 10.5985 23.8553C10.0526 22.6685 9.63814 20.8434 10.7655 18.8929C12.0324 16.6978 14.1125 16.2371 15.6346 16.2371C16.9452 16.2371 18.1519 16.595 18.7667 16.95C20.246 17.8034 21.7091 19.0394 22.4068 20.0249C23.4256 21.4634 24.3374 21.937 25.094 21.4991C25.8677 21.0524 25.8905 20.0214 25.1606 18.4346C24.6568 17.3388 24.3182 15.4536 24.3182 13.7448C24.3182 11.9916 25.9535 7.78696 30.0023 7.78696C34.0499 7.78696 35.6845 11.9916 35.6845 13.7448C35.6845 15.4536 35.3459 17.3388 34.8421 18.4346C34.1123 20.0214 34.1351 21.0518 34.9086 21.4991C35.6664 21.937 36.576 21.4634 37.596 20.0249C38.2936 19.0394 39.7566 17.804 41.2361 16.95C41.8508 16.595 43.0576 16.2371 44.3676 16.2371C45.8897 16.2371 47.9698 16.6978 49.2372 18.8929C50.364 20.844 49.9501 22.6685 49.4042 23.8553C48.7579 25.2612 47.6633 26.3634 46.9195 26.7931C45.4396 27.6478 43.6379 28.297 42.4358 28.4086C40.6949 28.5714 39.8144 29.1062 39.8144 29.9994C39.8144 30.8927 40.6949 31.4274 42.4334 31.5898C43.6355 31.7012 45.4372 32.3504 46.9171 33.2058C47.6598 33.6343 48.7544 34.7377 49.4018 36.1429C49.9477 37.3298 50.3623 39.1542 49.2355 41.1054Z" fill="#BC002D"/>
</g>
</svg>
