<svg width="40" height="38" viewBox="0 0 40 38" fill="none" xmlns="http://www.w3.org/2000/svg">
<path d="M4.18733 38C3.96694 37.8852 3.82002 37.713 3.74656 37.4834C3.70983 37.2538 3.76492 37.0624 3.91185 36.9094C10.2663 34.7281 15.7392 31.15 20.3306 26.1752C24.9587 21.2004 28.2645 15.0201 30.2479 7.63444C30.5785 6.52467 30.7438 5.60624 30.7438 4.87916C30.7438 4.30514 30.6152 3.82679 30.3581 3.44411C30.101 3.02316 29.6235 2.67875 28.9256 2.41088C28.8154 2.21954 28.7603 2.06647 28.7603 1.95166C28.7603 1.64552 28.8889 1.43505 29.146 1.32024C29.9174 0.975832 30.7071 0.803627 31.5152 0.803627C32.764 0.803627 34.0129 1.16717 35.2617 1.89426C36.5473 2.62135 37.8512 3.57804 39.1736 4.76435C39.7245 5.26183 40 5.81672 40 6.429C40 7.15607 39.6327 7.84489 38.8981 8.49547C38.3838 8.91644 37.943 9.4713 37.5758 10.1601C37.2452 10.8489 36.7493 11.9778 36.0882 13.5468C34.5087 17.3736 32.562 20.6838 30.2479 23.4773C27.9706 26.2326 25.4362 28.5669 22.6446 30.4804C19.8898 32.3938 16.9513 33.9627 13.8292 35.1873C10.7071 36.3736 7.49311 37.3112 4.18733 38ZM5.17906 16.1299C4.70156 14.1017 4.02204 12.1309 3.1405 10.2175C2.25895 8.26586 1.23049 6.77341 0.0550964 5.74018L0 5.51058C0 5.1279 0.202017 4.87916 0.60606 4.76435C2.03857 4.91742 3.52617 5.31923 5.06887 5.96979C6.61157 6.62034 7.98898 7.48139 9.2011 8.55287C10.4132 9.62435 11.2397 10.8681 11.6804 12.284C11.9008 13.0111 12.011 13.6808 12.011 14.2931C12.011 15.6707 11.5886 16.7422 10.7438 17.5076C9.93574 18.2346 9.07252 18.5982 8.15427 18.5982C7.49311 18.5982 6.86866 18.4068 6.28099 18.0242C5.73003 17.6032 5.36272 16.9718 5.17906 16.1299ZM17.0248 11.3656C16.6207 9.5287 15.9413 7.63444 14.9862 5.68278C14.0312 3.73112 12.9477 2.16213 11.7355 0.975832V0.746225C11.7355 0.325276 11.9192 0.0765346 12.2865 0C13.5721 0.153072 14.876 0.478349 16.1983 0.975832C17.5574 1.47331 18.7879 2.12387 19.8898 2.92749C21.0284 3.69285 21.9468 4.59215 22.6446 5.62538C23.3425 6.65861 23.6915 7.82581 23.6915 9.12689C23.6915 10.5428 23.2691 11.6717 22.4242 12.5136C21.5794 13.3172 20.6795 13.719 19.7245 13.719C19.1368 13.719 18.5859 13.5277 18.0716 13.145C17.5574 12.7624 17.2085 12.1692 17.0248 11.3656Z" fill="#6200FF"/>
</svg>
